<?xml version="1.0" encoding="UTF-8"?>
<svg xmlns="http://www.w3.org/2000/svg" viewBox="0 0 100 100" width="100" height="100" aria-label="capricorn zodiac sign">
  <path d="M325 -192V-137Q392 -137 444.5 -96.0Q497 -55 543 39Q517 79 508.0 130.0Q499 181 499 241V517Q499 564 488.0 595.0Q477 626 451 663Q437 650 418.0 618.0Q399 586 377.0 543.0Q355 500 334.5 451.5Q314 403 296.5 356.0Q279 309 269.0 270.5Q259 232 259 208V0H189V363Q189 426 186.0 471.0Q183 516 175 544Q160 600 129.5 625.0Q99 650 51 650V714Q156 714 205.5 641.5Q255 569 256 408V405Q265 441 285.0 489.0Q305 537 330.0 584.0Q355 631 377.5 666.5Q400 702 413 714H501Q519 693 534.5 661.5Q550 630 559.5 597.0Q569 564 569 535V244Q569 145 588 106Q630 165 671.0 187.5Q712 210 761 210Q831 210 873.0 174.5Q915 139 915 77Q915 8 868.5 -31.0Q822 -70 741 -70Q698 -70 663.5 -57.5Q629 -45 589 -12Q550 -97 480.0 -144.5Q410 -192 325 -192ZM741 -8Q792 -8 821.5 15.5Q851 39 851 77Q851 107 826.5 128.5Q802 150 762 150Q724 150 689.0 126.5Q654 103 620 49Q638 26 673.5 9.0Q709 -8 741 -8Z" transform="translate(4.152318 74.774834) scale(0.094923 -0.094923)" fill="#000000"/>
</svg>
